<svg width="48" height="48" viewBox="0 0 48 48" fill="none" xmlns="http://www.w3.org/2000/svg">
<path d="M23.272 40.7433C24.0673 40.7433 24.712 40.0986 24.712 39.3033C24.712 38.508 24.0673 37.8633 23.272 37.8633C22.4767 37.8633 21.832 38.508 21.832 39.3033C21.832 40.0986 22.4767 40.7433 23.272 40.7433Z" fill="#811DB3"/>
<path d="M44.16 0L3.84 0C1.7184 0 0 1.728 0 3.84L0 10.8L48 10.8V3.84C48 1.728 46.272 0 44.16 0ZM24.1536 6.8448L6.7392 6.8448C6.2112 6.8448 5.7792 6.4128 5.7792 5.8848C5.7792 5.3568 6.2112 4.9248 6.7392 4.9248L24.1536 4.9248C24.6816 4.9248 25.1136 5.3568 25.1136 5.8848C25.1136 6.4128 24.6816 6.8448 24.1536 6.8448ZM34.5792 6.5664C34.3968 6.7392 34.1472 6.8448 33.8976 6.8448C33.648 6.8448 33.3984 6.7392 33.216 6.5664C33.0432 6.384 32.9376 6.1344 32.9376 5.8848C32.9376 5.6352 33.0432 5.3856 33.216 5.2032C33.5808 4.848 34.224 4.848 34.5792 5.2032C34.752 5.3856 34.8576 5.6352 34.8576 5.8848C34.8576 6.1344 34.752 6.384 34.5792 6.5664ZM38.256 6.5664C38.0736 6.7392 37.824 6.8448 37.5744 6.8448C37.3248 6.8448 37.0752 6.7392 36.9024 6.5664C36.72 6.384 36.6144 6.1344 36.6144 5.8848C36.6144 5.6352 36.72 5.3856 36.8928 5.2032C37.2576 4.848 37.8912 4.848 38.256 5.2032C38.4384 5.3856 38.5344 5.6352 38.5344 5.8848C38.5344 6.1344 38.4384 6.384 38.256 6.5664ZM41.9328 6.5664C41.76 6.7392 41.5104 6.8448 41.2608 6.8448C41.0016 6.8448 40.752 6.7392 40.5792 6.5664C40.3968 6.384 40.3008 6.1344 40.3008 5.8848C40.3008 5.6352 40.3968 5.3856 40.5792 5.2032C40.9344 4.848 41.5776 4.848 41.9328 5.2032C42.1152 5.3856 42.2208 5.6352 42.2208 5.8848C42.2208 6.1344 42.1152 6.384 41.9328 6.5664Z" fill="#811DB3"/>
<path d="M31.9791 40.7433C32.7744 40.7433 33.4191 40.0986 33.4191 39.3033C33.4191 38.508 32.7744 37.8633 31.9791 37.8633C31.1838 37.8633 30.5391 38.508 30.5391 39.3033C30.5391 40.0986 31.1838 40.7433 31.9791 40.7433Z" fill="#811DB3"/>
<path d="M0 44.1587C0 46.2803 1.7184 47.9987 3.84 47.9987H44.16C46.272 47.9987 48 46.2803 48 44.1587V12.7188L0 12.7188L0 44.1587ZM23.2704 42.6611C21.4176 42.6611 19.9104 41.1539 19.9104 39.3011C19.9104 37.4483 21.4176 35.9411 23.2704 35.9411C25.1232 35.9411 26.6304 37.4483 26.6304 39.3011C26.6304 41.1539 25.1232 42.6611 23.2704 42.6611ZM31.9776 42.6611C30.1248 42.6611 28.6176 41.1539 28.6176 39.3011C28.6176 37.4483 30.1248 35.9411 31.9776 35.9411C33.8304 35.9411 35.3376 37.4483 35.3376 39.3011C35.3376 41.1539 33.8208 42.6611 31.9776 42.6611ZM10.3104 17.0963H14.4C14.8032 17.0963 15.1584 17.3459 15.3024 17.7299L16.3008 20.4659H37.6704C37.9776 20.4659 38.256 20.6099 38.4384 20.8499C38.6208 21.0899 38.6784 21.4067 38.592 21.6947L35.184 33.0803C35.0592 33.4835 34.6848 33.7619 34.2624 33.7619H19.7952C19.392 33.7619 19.0368 33.5123 18.8928 33.1283L14.736 21.7619C14.736 21.7523 14.7264 21.7427 14.7264 21.7331L13.728 19.0163H10.3104C9.7824 19.0163 9.3504 18.5843 9.3504 18.0563C9.3504 17.5283 9.7824 17.0963 10.3104 17.0963Z" fill="#811DB3"/>
<path d="M33.5525 31.8523L36.3941 22.3867H17.0117L20.4677 31.8523H33.5525Z" fill="#811DB3"/>
</svg>
