<svg width="72" height="72" viewBox="0 0 72 72" fill="none" xmlns="http://www.w3.org/2000/svg">
<rect width="72" height="72" rx="12" fill="#FFEFE2"/>
<g clip-path="url(#clip0_558_12220)">
<path d="M199.156 30.2634C196.154 30.2634 193.666 31.3171 191.889 33.2683L192.244 31.5122C192.363 30.9659 191.968 30.4976 191.415 30.4976C190.862 30.4976 190.269 30.9659 190.19 31.5122L184.976 58.2439C184.858 58.7902 185.253 59.2585 185.806 59.2585C186.359 59.2585 186.951 58.7902 187.03 58.2439L188.966 48.2927C189.677 49.5805 191.336 51.2976 195.048 51.2976C197.971 51.2976 200.381 50.4 202.277 48.6829C204.252 46.8878 205.594 44.1951 206.266 40.7219C206.937 37.2488 206.661 34.5951 205.397 32.8C204.173 31.1219 202.079 30.2634 199.156 30.2634ZM195.404 49.4634C190.98 49.4634 189.242 46.4585 190.348 40.761C191.454 35.0244 194.258 32.0976 198.643 32.0976C203.462 32.0976 205.239 34.9463 204.094 40.761C202.948 46.7317 200.183 49.4634 195.404 49.4634ZM244.145 39.6683C241.538 38.6927 239.05 37.7951 239.524 35.3756C239.761 34.1658 240.748 32.1366 244.777 32.1366C247.028 32.1366 248.45 32.761 249.675 34.2829C249.912 34.5561 250.188 34.5561 250.267 34.5561C250.82 34.5171 251.294 34.1268 251.413 33.6195C251.452 33.3854 251.413 33.1512 251.294 32.9561V32.9171C250.03 31.161 247.976 30.2634 245.132 30.2634C241.025 30.2634 238.062 32.2146 237.47 35.3756C236.719 39.161 240.116 40.4097 243.118 41.5415C245.685 42.5171 248.134 43.4146 247.7 45.7171C247.068 48.9951 243.592 49.4634 241.578 49.4634C238.813 49.4634 237.114 48.7219 235.85 46.9658C235.692 46.7707 235.495 46.6927 235.258 46.6927C234.705 46.7317 234.231 47.1219 234.112 47.6293C234.073 47.8634 234.112 48.0976 234.231 48.2927C235.06 49.8146 237.549 51.3756 241.222 51.3756C245.883 51.3756 249.082 49.2683 249.754 45.7561C250.465 41.9707 247.107 40.7219 244.145 39.6683ZM237.904 24.9561H235.732L236.166 22.8097C236.285 22.2634 235.89 21.7951 235.337 21.7951C234.784 21.7951 234.231 22.2634 234.112 22.8097L233.678 24.9561H231.505C230.952 24.9561 230.399 25.4244 230.281 25.9707C230.163 26.5171 230.557 26.9854 231.11 26.9854H233.283L232.848 29.1317C232.73 29.678 233.125 30.1463 233.678 30.1463C234.231 30.1463 234.784 29.678 234.902 29.1317L235.337 26.9854H237.509C238.062 26.9854 238.615 26.5171 238.734 25.9707C238.852 25.5415 238.576 25.0732 238.102 24.9561C238.062 24.9951 237.983 24.9561 237.904 24.9561ZM64.6641 45.7171C65.7305 46.2634 67.6265 47.0049 69.4434 46.9658C71.1023 46.9658 71.9713 46.0683 71.9713 45.0146C71.9713 43.961 71.3393 43.2585 69.5619 42.2439C67.35 40.9951 65.6911 39.239 65.6911 36.9366C65.6911 32.878 69.2064 29.9902 74.3412 29.9902C76.5926 29.9902 78.3305 30.4195 79.2785 30.9658L77.9356 35.0634C76.7901 34.5561 75.5657 34.2829 74.3017 34.2829C72.6428 34.2829 71.5763 35.0244 71.5763 36.1951C71.5763 37.1317 72.3268 37.7951 73.8277 38.5756C76.1186 39.8634 78.0146 41.6195 78.0146 44.1171C78.0146 48.7219 74.2227 51.3366 68.9694 51.2976C66.56 51.2585 64.3086 50.6341 63.2026 49.8537C63.2421 49.8537 64.6641 45.7171 64.6641 45.7171ZM79.1995 51.1415L84.8873 21.7951H90.7331L88.4816 33.1512L88.5606 33.0732C90.1406 31.239 92.155 29.9512 94.7619 29.9512C97.8033 29.9512 99.5412 31.9024 99.5412 35.1415C99.5412 36.1561 99.3832 37.7561 99.1067 39.0439L96.8158 51.1024H90.97L93.182 39.3951C93.34 38.6146 93.4189 37.561 93.4189 36.7805C93.4189 35.5317 92.9055 34.5951 91.602 34.5951C89.7456 34.5951 87.7312 37.0537 86.9807 40.878L85.0453 51.1024L79.1995 51.1415ZM120.712 38.0293C120.712 45.2097 116.052 51.2976 109.139 51.2976C103.886 51.2976 101.082 47.7073 101.082 43.2195C101.082 36.2341 105.742 29.9512 112.773 29.9512C118.263 29.9512 120.712 33.8927 120.712 38.0293ZM107.085 43.1024C107.085 45.2097 107.915 46.8878 109.929 46.8878C113.01 46.8878 114.748 41.4244 114.748 37.8732C114.748 36.1561 114.077 34.4 111.983 34.4C108.823 34.361 107.085 39.7854 107.085 43.1024ZM119.33 59.2976L123.398 38.1463C123.872 35.7659 124.346 32.6829 124.583 30.4976H129.758L129.402 33.7756H129.481C131.061 31.5902 133.352 30.1463 135.682 30.1463C139.948 30.1463 141.686 33.5415 141.686 37.4049C141.686 44.4293 137.183 51.3756 130.31 51.3756C128.889 51.3756 127.546 51.1415 126.874 50.5951H126.756L125.136 59.2976H119.33ZM127.664 46.1073C128.296 46.6146 129.007 46.9268 130.073 46.9268C133.352 46.9268 135.603 41.6195 135.603 37.8732C135.603 36.3122 135.05 34.6732 133.273 34.6732C131.219 34.6732 129.323 37.0537 128.652 40.6829L127.664 46.1073ZM141.884 51.1415L145.833 30.4976H151.719L147.729 51.1415L141.884 51.1415ZM149.467 28.3512C147.808 28.3512 146.702 26.9463 146.702 25.2293C146.702 23.3561 148.203 21.7561 150.06 21.7561C151.837 21.7561 152.983 23.1219 152.983 24.8C152.943 26.9463 151.363 28.3122 149.546 28.3122C149.546 28.3512 149.467 28.3512 149.467 28.3512ZM152.825 51.1415L155.905 34.8293H153.18L154.01 30.4976H156.735L156.893 29.4439C157.367 27.0244 158.275 24.5268 160.29 22.8878C161.87 21.561 163.924 20.9366 166.017 20.9366C167.439 20.9366 168.505 21.1317 169.177 21.4439L168.031 25.9707C167.439 25.7756 166.807 25.6585 166.175 25.6585C164.24 25.6585 163.055 27.4927 162.699 29.4829L162.502 30.5366H166.57L165.78 34.8683H161.751L158.67 51.1805L152.825 51.1415ZM173.877 30.4976L174.825 39.7463C175.023 41.3854 175.181 42.9854 175.339 44.6244H175.418C175.892 43.5317 176.326 41.9317 177.156 39.7073L180.71 30.4976H186.833L179.684 45.6C177.156 50.7902 174.667 54.5756 172.021 57.0341C169.927 58.9463 167.479 59.9219 166.294 60.1561L164.674 55.239C165.662 54.8878 166.886 54.3805 167.992 53.6C169.335 52.6634 170.48 51.4146 171.191 50.1268C171.349 49.8146 171.389 49.6195 171.31 49.2293L167.794 30.4585C167.715 30.4976 173.877 30.4976 173.877 30.4976ZM233.125 32.4488C232.572 32.4488 232.019 32.9171 231.9 33.4634L229.926 43.6098C228.859 48.761 225.66 49.4634 222.618 49.4634C217.207 49.4634 217.049 46.4195 217.641 43.4146L219.972 31.5122C220.09 30.9659 219.695 30.4976 219.142 30.4976C218.589 30.4976 218.036 30.9659 217.918 31.5122L215.588 43.4146C215.114 45.8341 215.272 47.5902 216.101 48.878C217.128 50.478 219.182 51.2976 222.263 51.2976C225.344 51.2976 227.714 50.478 229.373 48.878C230.676 47.5902 231.545 45.7951 232.019 43.4146L233.954 33.4244C234.073 32.9171 233.678 32.4488 233.125 32.4488ZM214.442 21.8341C213.889 21.8341 213.297 22.3024 213.218 22.8488L207.925 50.0488C207.806 50.5951 208.201 51.0634 208.754 51.0634C209.307 51.0634 209.86 50.5951 209.979 50.0488L215.272 22.8488C215.39 22.3024 214.995 21.8341 214.442 21.8341ZM43.2164 17.5415L41.7945 17.9707C41.6365 17.3854 41.3995 16.839 41.123 16.2927C40.0961 14.3805 38.6346 13.3659 36.8572 13.3659C36.7387 13.3659 36.6202 13.3658 36.5017 13.4049C36.4622 13.3268 36.3832 13.2878 36.3437 13.2097C35.5537 12.3902 34.5663 12 33.3813 12C31.0509 12.078 28.76 13.7171 26.9036 16.6439C25.6001 18.7122 24.5732 21.2878 24.2967 23.3171L19.7544 24.7219C18.4114 25.1512 18.3719 25.1902 18.2139 26.439C18.0954 27.3756 14.5801 54.1854 14.5801 54.1854L43.6904 59.1415L43.6904 17.5024C43.4534 17.5024 43.3349 17.5024 43.2164 17.5415ZM36.5017 19.6098L31.6039 21.1317C32.0779 19.3366 32.9863 17.5415 34.0923 16.3707C34.4873 15.9415 35.0798 15.4341 35.7512 15.161C36.3832 16.4878 36.5017 18.322 36.5017 19.6098ZM33.3418 13.561C33.8158 13.522 34.3293 13.678 34.7243 13.9122C34.0528 14.2634 33.4603 14.7317 32.9468 15.278C31.4854 16.839 30.34 19.2585 29.9055 21.6L25.8371 22.8488C26.6666 19.1805 29.7475 13.678 33.3418 13.561ZM28.839 34.478C28.997 36.9366 35.5142 37.4439 35.8697 43.1805C36.1462 47.7073 33.4603 50.7902 29.55 51.0244C24.8497 51.3366 22.2823 48.6049 22.2823 48.6049L23.2697 44.4293C23.2697 44.4293 25.8766 46.3805 27.9305 46.2244C29.2735 46.1463 29.787 45.0536 29.708 44.2732C29.5105 41.0732 24.2177 41.2683 23.8622 36.039C23.5857 31.6293 26.5086 27.1415 32.9863 26.7512C35.4747 26.5951 36.7387 27.2195 36.7387 27.2195L35.2773 32.6829C35.2773 32.6829 33.6183 31.9415 31.6829 32.0585C28.839 32.2537 28.7995 34.0488 28.839 34.478ZM38.0421 19.1415C38.0421 17.9707 37.8842 16.3707 37.3312 14.9658C39.0691 15.278 39.9381 17.2683 40.3331 18.439C40.2936 18.439 38.0421 19.1415 38.0421 19.1415ZM44.5199 59.0634L56.6064 56.0976C56.6064 56.0976 51.3926 21.3659 51.3926 21.1317C51.3531 20.9366 51.1951 20.7805 50.9581 20.7415C50.8001 20.7415 47.4033 20.6634 47.4033 20.6634C47.4033 20.6634 45.3494 18.6732 44.5594 17.9317L44.5594 59.0634H44.5199Z" fill="#C49D42"/>
</g>
<defs>
<clipPath id="clip0_558_12220">
<rect width="45.8182" height="48" fill="white" transform="translate(13 12)"/>
</clipPath>
</defs>
</svg>
