<svg width="142" height="46" viewBox="0 0 142 46" fill="none" xmlns="http://www.w3.org/2000/svg">
<g clip-path="url(#clip0_410_14878)">
<path d="M17.8008 3.10938L17.9962 20.8569L32.8885 12.2389L17.8008 3.10938Z" fill="#FC0200"/>
<path d="M16.8664 24.0117L33.3761 33.6309L17.2029 42.9997L0.617188 33.4132L16.8664 24.0117Z" fill="#FC0200"/>
<path d="M15.7926 22.1513L15.7383 3L-0.5 12.4015L-0.456582 31.5528L15.7926 22.1513Z" fill="#FC0200"/>
<path d="M49.4209 30.9001C48.0022 30.9324 46.6042 30.5547 45.3939 29.812C44.2679 29.1062 43.3558 28.1053 42.7563 26.9175C42.1355 25.6628 41.8125 24.2811 41.8125 22.8805C41.8125 21.4799 42.1355 20.0983 42.7563 18.8435C43.373 17.6143 44.329 16.5885 45.5105 15.8883C46.692 15.188 48.0493 14.8428 49.4209 14.8936C51.0944 14.839 52.7391 15.3401 54.0992 16.319C55.3578 17.2212 56.2787 18.5198 56.7152 20.0078H54.2078C53.8727 19.1323 53.2875 18.3752 52.5253 17.8315C51.705 17.2596 50.7236 16.966 49.7249 16.9937C48.7105 16.9661 47.7092 17.2288 46.8384 17.7511C45.9676 18.2733 45.2632 19.0335 44.8078 19.9425C44.3579 20.8563 44.1238 21.8615 44.1238 22.8805C44.1238 23.8995 44.3579 24.9048 44.8078 25.8185C45.2606 26.7304 45.9641 27.4936 46.8353 28.018C47.7065 28.5424 48.7091 28.8061 49.7249 28.7782C50.7236 28.8059 51.705 28.5123 52.5253 27.9404C53.2866 27.3957 53.8716 26.639 54.2078 25.7641H56.7152C56.2878 27.2771 55.3667 28.6027 54.0992 29.529C52.7292 30.4821 51.0874 30.9633 49.4209 30.9001Z" fill="white"/>
<path d="M67.3402 30.8993C65.9045 30.9305 64.4894 30.5532 63.2589 29.8112C62.1191 29.1157 61.1975 28.1126 60.5996 26.9167C59.9762 25.6676 59.6599 24.2872 59.6769 22.8906C59.6543 21.4865 59.9708 20.0977 60.5996 18.8428C61.2011 17.6522 62.1221 16.6536 63.2589 15.9592C64.5099 15.2597 65.9186 14.8926 67.3511 14.8926C68.7835 14.8926 70.1922 15.2597 71.4432 15.9592C72.5713 16.6576 73.4843 17.6557 74.0808 18.8428C74.6952 20.0994 75.0146 21.4803 75.0146 22.8798C75.0146 24.2792 74.6952 25.6601 74.0808 26.9167C73.4879 28.1091 72.5743 29.1116 71.4432 29.8112C70.2064 30.5572 68.7832 30.9347 67.3402 30.8993ZM67.3402 28.7883C68.335 28.8321 69.3196 28.5727 70.1644 28.0443C71.0092 27.516 71.6746 26.7435 72.0728 25.8286C72.4807 24.9031 72.6914 23.9025 72.6914 22.8906C72.6914 21.8788 72.4807 20.8781 72.0728 19.9527C71.6716 19.0407 71.0053 18.2714 70.161 17.7452C69.3166 17.2191 68.3335 16.9607 67.3402 17.0038C66.3124 16.9773 65.2999 17.2576 64.4312 17.809C63.6316 18.3485 62.9997 19.1027 62.6076 19.9853C62.1997 20.9108 61.989 21.9115 61.989 22.9233C61.989 23.9351 62.1997 24.9358 62.6076 25.8613C63.0145 26.7673 63.6828 27.5304 64.5263 28.0521C65.3698 28.5738 66.3499 28.8303 67.3402 28.7883Z" fill="white"/>
<path d="M85.5341 30.9009C84.1847 30.9257 82.856 30.5655 81.7029 29.8623C80.5499 29.1591 79.6199 28.1419 79.0214 26.9292C78.3981 25.6801 78.0818 24.2997 78.0988 22.9031C78.0761 21.4989 78.3927 20.1101 79.0214 18.8552C79.6209 17.6449 80.5517 16.6307 81.705 15.9312C82.8583 15.2317 84.1865 14.8758 85.5341 14.9052C86.6639 14.8779 87.7828 15.1322 88.7905 15.6452C89.6865 16.1261 90.4536 16.8167 91.0265 17.6582V8.95312H93.3928V30.618H91.0699V28.1697C90.4924 28.9988 89.7258 29.6777 88.8339 30.1501C87.8142 30.674 86.6795 30.9322 85.5341 30.9009ZM85.8489 28.7899C86.8808 28.8219 87.8984 28.5413 88.7688 27.9847C89.558 27.4396 90.1816 26.6864 90.5706 25.8084C90.9786 24.8829 91.1893 23.8822 91.1893 22.8704C91.1893 21.8586 90.9786 20.8579 90.5706 19.9325C90.1739 19.0195 89.5101 18.2489 88.667 17.7223C87.8239 17.1958 86.8412 16.9382 85.8489 16.9836C84.8424 16.9518 83.8486 17.2161 82.9902 17.744C82.1318 18.2719 81.4464 19.0403 81.0186 19.9542C80.5893 20.8739 80.3668 21.8768 80.3668 22.8922C80.3668 23.9076 80.5893 24.9105 81.0186 25.8302C81.4457 26.7438 82.1313 27.5115 82.9901 28.0377C83.8489 28.5639 84.843 28.8255 85.8489 28.7899Z" fill="white"/>
<path d="M98.3086 12.5437V9.50781H100.805V12.5437H98.3086ZM98.3954 30.6177V15.1444H100.718V30.6177H98.3954Z" fill="white"/>
<path d="M105.723 30.618V8.95312H108.046V30.618H105.723Z" fill="white"/>
<path d="M119.583 30.9002C118.234 30.925 116.905 30.5649 115.752 29.8617C114.599 29.1585 113.669 28.1413 113.07 26.9285C112.456 25.6719 112.137 24.291 112.137 22.8915C112.137 21.4921 112.456 20.1112 113.07 18.8545C113.67 17.6442 114.601 16.63 115.754 15.9305C116.907 15.231 118.236 14.8752 119.583 14.9046C120.713 14.8754 121.833 15.1298 122.84 15.6445C123.739 16.1251 124.509 16.8156 125.086 17.6576V15.144H127.398V30.6173H125.086V28.169C124.505 28.9986 123.735 29.6774 122.84 30.1494C121.834 30.6679 120.714 30.926 119.583 30.9002ZM119.887 28.7893C120.882 28.833 121.867 28.5736 122.711 28.0452C123.556 27.5169 124.221 26.7444 124.62 25.8295C125.028 24.904 125.238 23.9034 125.238 22.8915C125.238 21.8797 125.028 20.879 124.62 19.9536C124.219 19.0416 123.552 18.2723 122.708 17.7462C121.864 17.22 120.88 16.9616 119.887 17.0047C118.89 16.9795 117.907 17.2447 117.058 17.7681C116.208 18.2915 115.528 19.0506 115.1 19.9536C114.671 20.8732 114.448 21.8762 114.448 22.8915C114.448 23.9069 114.671 24.9099 115.1 25.8295C115.527 26.7414 116.211 27.5079 117.067 28.034C117.924 28.5601 118.916 28.8227 119.92 28.7893H119.887Z" fill="white"/>
<path d="M132.469 30.6175V15.1441H134.792V18.9635C135.094 18.0486 135.611 17.22 136.3 16.5478C136.792 16.0632 137.366 15.6691 137.994 15.3835C138.77 15.0437 139.611 14.8802 140.458 14.9047H140.61V17.2225H140.327C139.255 17.1971 138.205 17.5301 137.342 18.1692C136.509 18.8095 135.851 19.652 135.432 20.6175C134.98 21.6452 134.754 22.7587 134.77 23.8819V30.6175H132.469Z" fill="white"/>
<path d="M132.469 30.618V15.1446H134.792V18.964C135.094 18.0491 135.612 17.2206 136.301 16.5483C136.793 16.0637 137.366 15.6696 137.994 15.384C138.77 15.0442 139.612 14.8807 140.458 14.9052H140.61V17.223H140.328C139.256 17.1976 138.205 17.5306 137.343 18.1697C136.509 18.81 135.852 19.6525 135.432 20.618C134.98 21.6457 134.754 22.7592 134.77 23.8824V30.618H132.469ZM119.911 28.7573C120.905 28.801 121.89 28.5416 122.735 28.0132C123.58 27.4849 124.245 26.7124 124.643 25.7975C125.051 24.872 125.262 23.8714 125.262 22.8595C125.262 21.8477 125.051 20.8471 124.643 19.9216C124.242 19.0096 123.576 18.2403 122.731 17.7142C121.887 17.188 120.904 16.9296 119.911 16.9727C118.906 16.9461 117.916 17.2141 117.062 17.7438C116.208 18.2734 115.527 19.0417 115.102 19.9542C114.673 20.8739 114.45 21.8768 114.45 22.8922C114.45 23.9076 114.673 24.9105 115.102 25.8302C115.528 26.7421 116.212 27.5086 117.069 28.0347C117.926 28.5608 118.917 28.8234 119.921 28.7899L119.911 28.7573ZM119.607 30.8682C118.257 30.893 116.928 30.5329 115.775 29.8297C114.622 29.1265 113.692 28.1093 113.094 26.8965C112.48 25.6399 112.16 24.259 112.16 22.8595C112.16 21.4601 112.48 20.0792 113.094 18.8225C113.693 17.6122 114.624 16.598 115.778 15.8985C116.931 15.199 118.259 14.8432 119.607 14.8726C120.737 14.842 121.856 15.0965 122.863 15.6125C123.764 16.0902 124.535 16.7813 125.11 17.6256V15.1446H127.422V30.618H125.11V28.1697C124.531 29.0015 123.76 29.6809 122.863 30.1501C121.851 30.6735 120.723 30.9318 119.585 30.9009L119.607 30.8682ZM105.724 30.618V8.95312H108.047V30.618H105.724ZM98.3969 30.618V15.1446H100.72V30.618H98.3969ZM98.3101 12.5113V9.50808H100.807V12.544L98.3101 12.5113ZM85.8491 28.7899C86.881 28.8219 87.8986 28.5413 88.7689 27.9847C89.5582 27.4396 90.1817 26.6864 90.5708 25.8084C90.9788 24.8829 91.1895 23.8822 91.1895 22.8704C91.1895 21.8586 90.9788 20.8579 90.5708 19.9325C90.1741 19.0195 89.5103 18.2489 88.6672 17.7223C87.8241 17.1958 86.8414 16.9382 85.8491 16.9836C84.8425 16.9518 83.8487 17.2161 82.9903 17.744C82.132 18.2719 81.4466 19.0403 81.0188 19.9542C80.5895 20.8739 80.367 21.8768 80.367 22.8922C80.367 23.9076 80.5895 24.9105 81.0188 25.8302C81.4459 26.7438 82.1315 27.5115 82.9903 28.0377C83.8491 28.5639 84.8432 28.8255 85.8491 28.7899ZM85.5343 30.9009C84.1849 30.9257 82.8562 30.5655 81.7031 29.8623C80.55 29.1591 79.6201 28.1419 79.0216 26.9292C78.3983 25.6801 78.0819 24.2997 78.099 22.9031C78.0763 21.4989 78.3929 20.1101 79.0216 18.8552C79.6211 17.6449 80.5519 16.6307 81.7052 15.9312C82.8585 15.2317 84.1867 14.8758 85.5343 14.9052C86.6641 14.8779 87.783 15.1322 88.7907 15.6452C89.6867 16.1261 90.4537 16.8167 91.0267 17.6582V8.95312H93.393V30.618H91.0701V28.1697C90.4926 28.9988 89.726 29.6777 88.8341 30.1501C87.8144 30.6739 86.6796 30.9322 85.5343 30.9009ZM67.3421 28.7899C68.3369 28.8336 69.3216 28.5742 70.1664 28.0459C71.0112 27.5176 71.6765 26.7451 72.0747 25.8302C72.4827 24.9047 72.6934 23.904 72.6934 22.8922C72.6934 21.8804 72.4827 20.8797 72.0747 19.9542C71.6736 19.0423 71.0073 18.2729 70.1629 17.7468C69.3185 17.2207 68.3354 16.9623 67.3421 17.0054C66.3143 16.9789 65.3018 17.2592 64.4331 17.8106C63.6336 18.35 63.0016 19.1042 62.6096 19.9869C62.2016 20.9123 61.9909 21.913 61.9909 22.9248C61.9909 23.9367 62.2016 24.9373 62.6096 25.8628C63.0164 26.7688 63.6847 27.5319 64.5282 28.0537C65.3718 28.5754 66.3519 28.8318 67.3421 28.7899ZM67.3421 30.9009C65.9065 30.9321 64.4914 30.5548 63.2609 29.8128C62.121 29.1172 61.1994 28.1142 60.6015 26.9183C59.9782 25.6692 59.6618 24.2888 59.6789 22.8922C59.6562 21.488 59.9728 20.0992 60.6015 18.8443C61.203 17.6538 62.124 16.6551 63.2609 15.9607C64.5119 15.2613 65.9206 14.8941 67.353 14.8941C68.7855 14.8941 70.1941 15.2613 71.4451 15.9607C72.5733 16.6591 73.4862 17.6573 74.0828 18.8443C74.6972 20.101 75.0166 21.4819 75.0166 22.8813C75.0166 24.2808 74.6972 25.6617 74.0828 26.9183C73.4898 28.1107 72.5762 29.1132 71.4451 29.8128C70.2083 30.5588 68.7852 30.9362 67.3421 30.9009ZM49.4756 30.9009C48.0569 30.9332 46.6589 30.5555 45.4486 29.8128C44.3226 29.107 43.4105 28.1061 42.811 26.9183C42.1902 25.6635 41.8672 24.2819 41.8672 22.8813C41.8672 21.4807 42.1902 20.0991 42.811 18.8443C43.4277 17.6151 44.3836 16.5893 45.5652 15.8891C46.7467 15.1888 48.104 14.8436 49.4756 14.8944C51.1491 14.8398 52.7938 15.3409 54.1539 16.3198C55.4125 17.222 56.3334 18.5206 56.7698 20.0086H54.2082C53.8732 19.1331 53.2879 18.376 52.5257 17.8323C51.7055 17.2604 50.7241 16.9668 49.7253 16.9945C48.7109 16.9669 47.7097 17.2296 46.8388 17.7519C45.968 18.2741 45.2636 19.0343 44.8082 19.9433C44.3583 20.857 44.1243 21.8623 44.1243 22.8813C44.1243 23.9003 44.3583 24.9056 44.8082 25.8193C45.261 26.7312 45.9645 27.4944 46.8357 28.0188C47.7069 28.5431 48.7095 28.8069 49.7253 28.779C50.7241 28.8067 51.7055 28.5131 52.5257 27.9412C53.287 27.3965 53.872 26.6398 54.2082 25.7649H56.7156C56.2882 27.2779 55.3671 28.6035 54.0996 29.5298C52.7296 30.4829 51.0878 30.9641 49.4213 30.9009H49.4756Z" stroke="white"/>
</g>
<defs>
<clipPath id="clip0_410_14878">
<rect width="142" height="46" fill="white"/>
</clipPath>
</defs>
</svg>
