<svg width="36" height="36" viewBox="0 0 36 36" fill="none" xmlns="http://www.w3.org/2000/svg">
<path d="M6.53195 22.8623H12.6824C13.4177 22.8623 14.0872 23.163 14.5723 23.647C15.0563 24.131 15.357 24.8005 15.357 25.5358V28.1841C15.357 28.9194 15.0563 29.5889 14.5723 30.0729C14.0872 30.558 13.4188 30.8576 12.6824 30.8576H6.53195C5.79663 30.8576 5.12716 30.5569 4.64206 30.0729C4.15805 29.5878 3.85735 28.9194 3.85735 28.1841V25.5358C3.85735 24.8005 4.15805 24.131 4.64206 23.647C5.12716 23.1619 5.79553 22.8623 6.53195 22.8623ZM22.5541 22.8623H28.7046C29.4399 22.8623 30.1094 23.163 30.5945 23.647C31.0785 24.131 31.3792 24.8005 31.3792 25.5358V28.1841C31.3792 28.9194 31.0785 29.5889 30.5945 30.0729C30.1094 30.558 29.441 30.8576 28.7046 30.8576H22.5541C21.8188 30.8576 21.1494 30.5569 20.6643 30.0729C20.1802 29.5878 19.8795 28.9194 19.8795 28.1841V25.5358C19.8795 24.8005 20.1802 24.131 20.6643 23.647C21.1494 23.1619 21.8177 22.8623 22.5541 22.8623Z" fill="#303030"/>
<g filter="url(#filter0_d_690_8850)">
<path d="M17.6144 17.4453H17.6188H22.2634C23.0119 17.4453 23.6912 17.7504 24.184 18.2432C24.6768 18.7359 24.9819 19.4153 24.9819 20.1627C24.9819 20.5194 25.2716 20.808 25.6272 20.808C25.9839 20.808 26.2725 20.5193 26.2725 20.1627C26.2725 19.0586 25.8226 18.0566 25.0971 17.3312C24.3706 16.6057 23.3697 16.1558 22.2656 16.1558H18.262V13.1388H20.6918C21.4282 13.1388 22.0966 12.8392 22.5817 12.3541C23.0657 11.8701 23.3664 11.2006 23.3664 10.4653V7.81707C23.3664 7.08174 23.0668 6.41337 22.5817 5.92827C22.0966 5.44426 21.4282 5.14355 20.6918 5.14355H14.5414C13.806 5.14355 13.1377 5.44317 12.6526 5.92827C12.1686 6.41228 11.8679 7.08174 11.8679 7.81707V10.4653C11.8679 11.2006 12.1675 11.869 12.6526 12.3541C13.1366 12.8381 13.806 13.1388 14.5414 13.1388H16.9712V16.1558H12.9676C11.8635 16.1558 10.8615 16.6057 10.1361 17.3312C9.41063 18.0577 8.96065 19.0586 8.96065 20.1627C8.96065 20.5194 9.24928 20.808 9.60598 20.808C9.96268 20.808 10.2513 20.5193 10.2513 20.1627C10.2513 19.4153 10.5564 18.7359 11.0492 18.2432C11.543 17.7504 12.2224 17.4453 12.9698 17.4453H17.6144Z" fill="url(#paint0_linear_690_8850)"/>
</g>
<defs>
<filter id="filter0_d_690_8850" x="4.96065" y="5.14355" width="25.3119" height="23.6641" filterUnits="userSpaceOnUse" color-interpolation-filters="sRGB">
<feFlood flood-opacity="0" result="BackgroundImageFix"/>
<feColorMatrix in="SourceAlpha" type="matrix" values="0 0 0 0 0 0 0 0 0 0 0 0 0 0 0 0 0 0 127 0" result="hardAlpha"/>
<feOffset dy="4"/>
<feGaussianBlur stdDeviation="2"/>
<feComposite in2="hardAlpha" operator="out"/>
<feColorMatrix type="matrix" values="0 0 0 0 0 0 0 0 0 0 0 0 0 0 0 0 0 0 0.25 0"/>
<feBlend mode="normal" in2="BackgroundImageFix" result="effect1_dropShadow_690_8850"/>
<feBlend mode="normal" in="SourceGraphic" in2="effect1_dropShadow_690_8850" result="shape"/>
</filter>
<linearGradient id="paint0_linear_690_8850" x1="26.2725" y1="12.9758" x2="8.96065" y2="12.9758" gradientUnits="userSpaceOnUse">
<stop stop-color="#C20403"/>
<stop offset="1" stop-color="#EC6D2B"/>
</linearGradient>
</defs>
</svg>
