<svg width="24" height="24" viewBox="0 0 24 24" fill="none" xmlns="http://www.w3.org/2000/svg">
<path d="M8.6106 2.00088H15.3903C15.6486 2.00088 15.8592 2.22785 15.8592 2.50835V3.0952H21.1331C21.3923 3.0952 21.6021 3.32217 21.6021 3.60267V15.7257C21.6021 16.0053 21.3923 16.2332 21.1331 16.2332H18.7301V20.9851H21.5311C21.7902 20.9851 22 21.212 22 21.4925C22 21.773 21.7903 22 21.5311 22H2.46894C2.20976 22 2 21.773 2 21.4925C2 21.2129 2.20974 20.9851 2.46894 20.9851H5.26986V16.2332H2.86686C2.60767 16.2332 2.39791 16.0062 2.39791 15.7257V3.60179C2.39791 3.32217 2.60765 3.09432 2.86686 3.09432H8.1408V2.50747C8.1408 2.22699 8.35054 2 8.60975 2L8.6106 2.00088ZM11.1818 14.9895C10.9227 14.9895 10.7129 14.7626 10.7129 14.4821C10.7129 14.2016 10.9226 13.9746 11.1818 13.9746H12.8191C13.0783 13.9746 13.2881 14.2016 13.2881 14.4821C13.2881 14.7617 13.0783 14.9895 12.8191 14.9895H11.1818ZM10.4178 12.92C10.1586 12.92 9.94887 12.693 9.94887 12.4125C9.94887 12.132 10.1586 11.905 10.4178 11.905H13.5848C13.844 11.905 14.0537 12.132 14.0537 12.4125C14.0537 12.6921 13.844 12.92 13.5848 12.92H10.4178ZM4.91174 12.0561C4.65255 12.0561 4.44279 11.8291 4.44279 11.5486C4.44279 11.269 4.65253 11.0411 4.91174 11.0411H6.56658C6.82577 11.0411 7.03552 11.2681 7.03552 11.5486C7.03552 11.8291 6.82579 12.0561 6.56658 12.0561H4.91174ZM17.4351 12.0561C17.1759 12.0561 16.9662 11.8291 16.9662 11.5486C16.9662 11.269 17.1759 11.0411 17.4351 11.0411H19.09C19.3491 11.0411 19.5589 11.2681 19.5589 11.5486C19.5589 11.8291 19.3492 12.0561 19.09 12.0561H17.4351ZM10.4178 10.8495C10.1586 10.8495 9.94887 10.6226 9.94887 10.3421C9.94887 10.0625 10.1586 9.83461 10.4178 9.83461H13.5848C13.844 9.83461 14.0537 10.0616 14.0537 10.3421C14.0537 10.6226 13.844 10.8495 13.5848 10.8495H10.4178ZM6.20858 20.985H11.5328V17.3274H8.61138C8.35299 17.3274 8.14244 17.1004 8.14244 16.8199V16.2331H6.20846L6.20858 20.985ZM12.4699 20.985H17.794V16.2331H15.8601V16.82C15.8601 17.1004 15.6503 17.3274 15.3911 17.3274H12.4697L12.4699 20.985ZM3.33682 6.24523H8.14262V4.11008H3.33682V6.24523ZM8.14262 7.26017H3.33682V15.2199H8.14262V7.26017ZM15.8594 6.24523H20.6652V4.11008H15.8594V6.24523ZM20.6652 7.26017H15.8594V15.2199H20.6652V7.26017ZM9.07973 5.71964H14.9223V3.01671H9.07973V5.71964ZM14.9223 6.7337H9.07973V16.3133H14.9223V6.7337Z" fill="url(#paint0_linear_767_7936)"/>
<defs>
<linearGradient id="paint0_linear_767_7936" x1="12" y1="2" x2="12" y2="22" gradientUnits="userSpaceOnUse">
<stop stop-color="white"/>
<stop offset="1" stop-color="#CBCBCB"/>
</linearGradient>
</defs>
</svg>
