<svg width="24" height="21" viewBox="0 0 24 21" fill="none" xmlns="http://www.w3.org/2000/svg">
<path d="M16.0321 14.2915L18.7315 15.6677C19.155 15.8794 19.155 16.4087 18.7315 16.6204L12.2211 19.8492C12.0624 19.955 11.9036 19.955 11.7448 19.8492L5.23439 16.6204C4.86388 16.4087 4.86388 15.8794 5.23439 15.6677L7.98675 14.2915L3.27599 11.9626C2.90548 11.7509 2.90548 11.2216 3.27599 11.0099L5.97541 9.63368L1.31758 7.30476C0.89414 7.09304 0.89414 6.56374 1.31758 6.35202L11.7448 1.11196C11.9036 1.05903 12.1153 1.05903 12.2211 1.11196L22.7013 6.35202C23.1247 6.56374 23.0718 7.09304 22.7013 7.30476L17.9905 9.63368L20.7429 11.0099C21.1134 11.2216 21.1134 11.7509 20.7429 11.9626L16.0321 14.2915ZM7.1928 10.2159L4.70509 11.4862L12.0094 15.1384L19.3137 11.4862L16.826 10.2159L12.2211 12.5448C12.0624 12.5978 11.9036 12.5978 11.7448 12.5448L7.1928 10.2159ZM21.2722 6.82839L12.0094 2.17056L2.69376 6.82839L12.0094 11.4862L21.2722 6.82839ZM9.15121 14.8737L6.6635 16.1441L12.0094 18.7906L17.3553 16.1441L14.8676 14.8737L12.2211 16.197C12.0624 16.2499 11.9036 16.2499 11.7448 16.197L9.15121 14.8737Z" fill="url(#paint0_linear_767_7940)"/>
<defs>
<linearGradient id="paint0_linear_767_7940" x1="11.9997" y1="1.07227" x2="11.9997" y2="19.9285" gradientUnits="userSpaceOnUse">
<stop stop-color="white"/>
<stop offset="1" stop-color="#CBCBCB"/>
</linearGradient>
</defs>
</svg>
