<svg width="24" height="24" viewBox="0 0 24 24" fill="none" xmlns="http://www.w3.org/2000/svg">
<path d="M10.25 21.5C10.25 21.7764 10.0264 22 9.75 22H4C2.89745 22 2 21.1026 2 20V18C2 16.8974 2.89745 16 4 16H7.5C7.77637 16 8 16.2236 8 16.5C8 16.7764 7.77637 17 7.5 17H4C3.44825 17 3 17.4482 3 18V20C3 20.5518 3.44825 21 4 21H9.75C10.0264 21 10.25 21.2236 10.25 21.5ZM5 18.5C4.72363 18.5 4.5 18.7236 4.5 19C4.5 19.2764 4.72363 19.5 5 19.5H7C7.27637 19.5 7.5 19.2764 7.5 19C7.5 18.7236 7.27637 18.5 7 18.5H5ZM15.5 11C15.2236 11 15 11.2236 15 11.5V15H13C12.7236 15 12.5 15.2236 12.5 15.5C12.5 15.7764 12.7236 16 13 16H15.5C15.7764 16 16 15.7764 16 15.5V11.5C16 11.2236 15.7764 11 15.5 11ZM4 15H7.5C7.77637 15 8 14.7764 8 14.5C8 14.2236 7.77637 14 7.5 14H4C3.44825 14 3 13.5518 3 13V11C3 10.4482 3.44825 10 4 10H10C10.2764 10 10.5 9.77637 10.5 9.5C10.5 9.22363 10.2764 9 10 9H4C2.89745 9 2 9.89745 2 11V13C2 14.1026 2.89745 15 4 15ZM5 11.5C4.72363 11.5 4.5 11.7236 4.5 12C4.5 12.2764 4.72363 12.5 5 12.5H7C7.27637 12.5 7.5 12.2764 7.5 12C7.5 11.7236 7.27637 11.5 7 11.5H5ZM22 15.5C22 19.084 19.084 22 15.5 22C11.916 22 9 19.084 9 15.5C9 11.916 11.916 9 15.5 9C19.084 9 22 11.916 22 15.5ZM21 15.5C21 12.4667 18.5332 10 15.5 10C12.4668 10 10 12.4668 10 15.5C10 18.5332 12.4668 21 15.5 21C18.5332 21 21 18.5332 21 15.5ZM22 4V6C22 7.10255 21.1026 8 20 8H4C2.89745 8 2 7.10255 2 6V4C2 2.89745 2.89745 2 4 2H20C21.1026 2 22 2.89745 22 4ZM21 4C21 3.44825 20.5518 3 20 3H4C3.44825 3 3 3.44825 3 4V6C3 6.55175 3.44825 7 4 7H20C20.5518 7 21 6.55175 21 6V4ZM16 4.5H15.5C15.2236 4.5 15 4.72363 15 5C15 5.27637 15.2236 5.5 15.5 5.5H16C16.2764 5.5 16.5 5.27637 16.5 5C16.5 4.72363 16.2764 4.5 16 4.5ZM13 4.5H12.5C12.2236 4.5 12 4.72363 12 5C12 5.27637 12.2236 5.5 12.5 5.5H13C13.2764 5.5 13.5 5.27637 13.5 5C13.5 4.72363 13.2764 4.5 13 4.5ZM7 4.5H5C4.72363 4.5 4.5 4.72363 4.5 5C4.5 5.27637 4.72363 5.5 5 5.5H7C7.27637 5.5 7.5 5.27637 7.5 5C7.5 4.72363 7.27637 4.5 7 4.5ZM19 4.5H18.5C18.2236 4.5 18 4.72363 18 5C18 5.27637 18.2236 5.5 18.5 5.5H19C19.2764 5.5 19.5 5.27637 19.5 5C19.5 4.72363 19.2764 4.5 19 4.5Z" fill="url(#paint0_linear_767_7932)"/>
<defs>
<linearGradient id="paint0_linear_767_7932" x1="12" y1="2" x2="12" y2="22" gradientUnits="userSpaceOnUse">
<stop stop-color="white"/>
<stop offset="1" stop-color="#CBCBCB"/>
</linearGradient>
</defs>
</svg>
