<svg width="36" height="36" viewBox="0 0 36 36" fill="none" xmlns="http://www.w3.org/2000/svg">
<path d="M22.3899 4H13.702C11.6612 4 10 5.92678 10 8.29402V27.706C10 30.0732 11.6612 32 13.702 32H22.3899C24.4308 32 26.092 30.0732 26.092 27.706V8.29402C26.092 5.92678 24.4308 4 22.3899 4ZM19.7152 29.3907H16.3741C16.0194 29.3907 15.7302 29.0553 15.7302 28.6439C15.7302 28.2326 16.0195 27.8972 16.3741 27.8972H19.7152C20.0699 27.8972 20.3591 28.2326 20.3591 28.6439C20.3591 29.0553 20.0699 29.3907 19.7152 29.3907Z" fill="#303030"/>
<ellipse cx="18.3994" cy="17.998" rx="3.73333" ry="3.73333" fill="white"/>
<g filter="url(#filter0_d_690_8813)">
<path d="M18.3993 12.3994C17.2918 12.3994 16.2091 12.7278 15.2882 13.3432C14.3672 13.9585 13.6495 14.8331 13.2256 15.8564C12.8018 16.8797 12.6909 18.0056 12.907 19.0919C13.123 20.1782 13.6564 21.176 14.4396 21.9592C15.2227 22.7424 16.2205 23.2757 17.3068 23.4918C18.3931 23.7079 19.5191 23.597 20.5424 23.1731C21.5656 22.7493 22.4402 22.0315 23.0556 21.1106C23.6709 20.1897 23.9993 19.107 23.9993 17.9994C23.9993 17.264 23.8545 16.5358 23.5731 15.8564C23.2916 15.177 22.8792 14.5596 22.3591 14.0396C21.8391 13.5196 21.2218 13.1071 20.5424 12.8257C19.863 12.5443 19.1347 12.3994 18.3993 12.3994ZM21.5779 17.0121L18.2179 20.0921C18.1115 20.1897 17.9716 20.2424 17.8273 20.2393C17.683 20.2361 17.5455 20.1774 17.4434 20.0753L15.7634 18.3953C15.7099 18.3437 15.6673 18.2819 15.6379 18.2136C15.6086 18.1452 15.5931 18.0718 15.5925 17.9974C15.5918 17.923 15.606 17.8493 15.6342 17.7805C15.6623 17.7117 15.7039 17.6491 15.7565 17.5966C15.8091 17.544 15.8716 17.5024 15.9404 17.4742C16.0092 17.4461 16.083 17.4319 16.1573 17.4326C16.2317 17.4332 16.3052 17.4486 16.3735 17.478C16.4418 17.5073 16.5036 17.55 16.5553 17.6035L17.8561 18.9044L20.8208 16.1867C20.9302 16.0863 21.0751 16.0335 21.2235 16.0399C21.3719 16.0463 21.5117 16.1114 21.6121 16.2209C21.7125 16.3303 21.7653 16.4752 21.7589 16.6236C21.7525 16.772 21.6874 16.9117 21.5779 17.0121Z" fill="url(#paint0_linear_690_8813)"/>
</g>
<defs>
<filter id="filter0_d_690_8813" x="8.79935" y="12.3994" width="19.2" height="19.2002" filterUnits="userSpaceOnUse" color-interpolation-filters="sRGB">
<feFlood flood-opacity="0" result="BackgroundImageFix"/>
<feColorMatrix in="SourceAlpha" type="matrix" values="0 0 0 0 0 0 0 0 0 0 0 0 0 0 0 0 0 0 127 0" result="hardAlpha"/>
<feOffset dy="4"/>
<feGaussianBlur stdDeviation="2"/>
<feComposite in2="hardAlpha" operator="out"/>
<feColorMatrix type="matrix" values="0 0 0 0 0 0 0 0 0 0 0 0 0 0 0 0 0 0 0.25 0"/>
<feBlend mode="normal" in2="BackgroundImageFix" result="effect1_dropShadow_690_8813"/>
<feBlend mode="normal" in="SourceGraphic" in2="effect1_dropShadow_690_8813" result="shape"/>
</filter>
<linearGradient id="paint0_linear_690_8813" x1="23.9993" y1="17.9994" x2="12.7993" y2="17.9994" gradientUnits="userSpaceOnUse">
<stop stop-color="#C20403"/>
<stop offset="1" stop-color="#EC6D2B"/>
</linearGradient>
</defs>
</svg>
