<svg width="36" height="37" viewBox="0 0 36 37" fill="none" xmlns="http://www.w3.org/2000/svg">
<path d="M18.6039 16.5874C18.6707 15.8143 19.3024 15.2324 20.0755 15.2324H22.9258L22.5117 10.3549C22.4619 9.75602 21.9678 9.30785 21.3703 9.30785H19.2395V12.7243C19.5645 12.8895 19.8213 13.162 19.8213 13.5486C19.8213 14.1003 19.3732 14.5498 18.8227 14.5498C18.2711 14.5498 17.8215 14.1016 17.8215 13.5486C17.8215 13.1699 18.0705 12.9012 18.3837 12.7322V9.30799H10.6507V12.7335C10.9626 12.9026 11.2115 13.1699 11.2115 13.5486C11.2115 14.1003 10.7634 14.5498 10.213 14.5498C9.66128 14.5498 9.21177 14.1017 9.21177 13.5486C9.21177 13.1608 9.47124 12.8882 9.79624 12.7231V9.30926L7.66412 9.30664C7.06261 9.30664 6.57251 9.7548 6.52272 10.3537L5.00261 28.2363C4.98558 28.4355 5.05241 28.6268 5.18739 28.7736C5.32367 28.9204 5.50583 29.0003 5.70764 29.0003H17.7298C17.6826 28.8522 17.5699 28.7238 17.5843 28.5678L18.6039 16.5874Z" fill="#303030"/>
<path d="M14.5179 5C12.5338 5 10.9534 6.52407 10.7361 8.45038H18.3C18.0825 6.52269 16.5018 5 14.5179 5Z" fill="#303030"/>
<g filter="url(#filter0_d_690_8804)">
<path d="M29.883 16.657C29.8555 16.332 29.5842 16.083 29.2592 16.083H20.0742C19.7466 16.083 19.4793 16.3294 19.4504 16.657L18.4335 28.6372C18.4256 28.7315 18.4558 28.822 18.5187 28.8901C18.5829 28.9622 18.6707 28.9989 18.7651 28.9989H30.5685C30.6628 28.9989 30.7493 28.9622 30.8122 28.8927C30.8764 28.8207 30.9092 28.7315 30.9013 28.6359L29.883 16.657ZM27.857 19.4954V20.7574C27.857 22.5121 26.4273 23.9418 24.6726 23.9418C22.9179 23.9418 21.4882 22.5121 21.4882 20.7574V19.5006C21.2733 19.3578 21.1082 19.1547 21.1082 18.8782C21.1082 18.4405 21.4659 18.0827 21.9036 18.0827C22.3387 18.0827 22.6964 18.4405 22.6964 18.8782C22.6964 19.1442 22.5431 19.346 22.3413 19.4901V20.756C22.3413 22.0416 23.3857 23.0873 24.6726 23.0873C25.9582 23.0873 27.0039 22.0429 27.0039 20.756V19.4941C26.7968 19.3512 26.6383 19.1481 26.6383 18.8782C26.6383 18.4405 26.996 18.0827 27.4337 18.0827C27.8688 18.0827 28.2266 18.4405 28.2266 18.8782C28.2253 19.1481 28.0654 19.3526 27.857 19.4954Z" fill="url(#paint0_linear_690_8804)"/>
</g>
<defs>
<filter id="filter0_d_690_8804" x="14.4323" y="16.083" width="20.4702" height="20.916" filterUnits="userSpaceOnUse" color-interpolation-filters="sRGB">
<feFlood flood-opacity="0" result="BackgroundImageFix"/>
<feColorMatrix in="SourceAlpha" type="matrix" values="0 0 0 0 0 0 0 0 0 0 0 0 0 0 0 0 0 0 127 0" result="hardAlpha"/>
<feOffset dy="4"/>
<feGaussianBlur stdDeviation="2"/>
<feComposite in2="hardAlpha" operator="out"/>
<feColorMatrix type="matrix" values="0 0 0 0 0 0 0 0 0 0 0 0 0 0 0 0 0 0 0.25 0"/>
<feBlend mode="normal" in2="BackgroundImageFix" result="effect1_dropShadow_690_8804"/>
<feBlend mode="normal" in="SourceGraphic" in2="effect1_dropShadow_690_8804" result="shape"/>
</filter>
<linearGradient id="paint0_linear_690_8804" x1="30.9025" y1="22.5409" x2="18.4323" y2="22.5409" gradientUnits="userSpaceOnUse">
<stop stop-color="#C20403"/>
<stop offset="1" stop-color="#EC6D2B"/>
</linearGradient>
</defs>
</svg>
