<svg width="36" height="36" viewBox="0 0 36 36" fill="none" xmlns="http://www.w3.org/2000/svg">
<path fill-rule="evenodd" clip-rule="evenodd" d="M5.1838 20.1019L8.05437 16.254C8.18566 16.078 8.40862 15.9258 8.67015 15.8873C8.92334 15.8498 9.16195 15.9144 9.36512 16.0675L15.3677 20.7458C15.6406 20.9583 15.773 21.2959 15.7261 21.6262C16.5034 21.8565 17.0837 22.0502 17.3567 22.143C17.5391 22.0346 18.0892 21.7419 18.2663 21.697C18.7383 21.5772 19.2343 21.5241 19.7375 21.5241C19.7282 21.2271 19.8605 20.9354 20.1053 20.7447C22.1037 19.187 24.102 17.5834 26.1193 16.0561C26.5288 15.7498 27.1144 15.8467 27.4186 16.252L30.2892 20.0999C30.5966 20.5114 30.507 21.0886 30.1048 21.4023C28.1053 22.961 26.1091 24.5604 24.0908 26.0909C23.8032 26.3055 23.4145 26.3284 23.0988 26.1586C22.7737 26.541 22.3393 26.9557 21.9527 27.3027C22.6279 27.9987 22.0371 29.0093 21.2296 29.0312C21.09 29.5584 20.542 29.9283 20.0075 29.8012C19.8043 30.2607 19.2698 30.5545 18.7728 30.3951C18.4883 30.9807 17.6933 31.2515 17.1328 30.691L16.7567 30.3149L16.3368 30.7348C15.8502 31.2213 15.0167 31.0046 14.827 30.3482C14.3081 30.3295 13.8632 29.9012 13.8205 29.3834C13.3798 29.2886 13.0339 28.9114 12.9859 28.4613C12.2607 28.3185 11.8284 27.4329 12.3733 26.8025L12.0055 26.267C11.7898 26.2857 11.5668 26.2295 11.3803 26.0899C9.35272 24.5561 7.37212 22.964 5.36629 21.4012C4.96619 21.0907 4.87644 20.5135 5.1838 20.1019ZM15.3487 22.3202L12.6824 25.8939L12.9262 26.2492L13.8733 25.302C14.5433 24.6321 15.5279 25.152 15.6113 25.9387C16.0666 26.0283 16.4281 26.4211 16.4667 26.8858C17.0022 27.0014 17.4044 27.5453 17.2867 28.0986C17.5972 28.2601 17.8107 28.5945 17.8014 28.9488C17.9525 28.8404 18.164 28.8529 18.2994 28.9894L18.8985 29.5885C19.1257 29.8157 19.4695 29.4718 19.2424 29.2447L18.2703 28.2726C18.1192 28.1215 18.1192 27.8777 18.2703 27.7266C18.4214 27.5755 18.6652 27.5755 18.8163 27.7266L20.0655 28.9759C20.2958 29.2061 20.6188 28.8581 20.4281 28.6508L18.8913 27.1139C18.7402 26.9629 18.7402 26.719 18.8913 26.568C19.0424 26.4169 19.2862 26.4169 19.4373 26.568L21.0512 28.1819C21.2783 28.4091 21.6222 28.0652 21.395 27.8381L21.1231 27.5661C20.9502 27.4234 19.8884 26.5419 18.041 24.8593C17.8712 24.9396 17.5951 25.0708 17.1825 25.273C17.1606 25.2855 17.1377 25.2959 17.1126 25.3042C15.7123 25.7804 14.8611 24.3196 15.6279 23.5403C15.9321 23.2246 16.2437 22.9422 16.5604 22.6932C16.2427 22.589 15.8322 22.4608 15.3487 22.3202ZM16.4844 29.5001L16.9804 29.0041C17.0481 28.9364 17.0314 28.8697 16.9793 28.8176C16.9251 28.7645 16.8605 28.7447 16.7907 28.8145L15.6019 30.0023C15.4769 30.1273 15.6676 30.317 15.7915 30.1919L16.4844 29.5001ZM17.3034 29.772L17.6795 30.1482C17.9098 30.3784 18.2328 30.0304 18.0421 29.8231C17.915 29.6855 17.7108 29.5334 17.6607 29.3855C17.5774 29.5116 17.4169 29.6585 17.3034 29.772ZM20.1134 22.3078C19.8352 22.2922 19.5684 22.2922 19.3142 22.3099C19.0225 22.3307 18.7443 22.3734 18.4786 22.4391C18.2817 22.5037 17.8087 22.7652 17.6055 22.8933C17.1022 23.209 16.6188 23.6164 16.1791 24.0728C16.0176 24.2406 16.1582 24.4823 16.3322 24.5708C16.4562 24.6334 16.6302 24.649 16.847 24.5781C17.718 24.152 17.9503 24.0488 17.9503 24.0488C18.0983 23.9822 18.265 24.0165 18.3755 24.1218C19.9321 25.543 20.9448 26.4119 21.3823 26.7808C21.7689 26.4369 22.2534 25.9785 22.566 25.5951L20.1134 22.3078ZM15.0319 29.4816L16.452 28.0614C16.6781 27.8343 16.3353 27.4905 16.1082 27.7176L14.6713 29.1533C14.5078 29.318 14.6359 29.5024 14.7693 29.5597C14.8714 29.6034 14.9423 29.5607 15.0319 29.4816ZM14.1775 28.5553L15.6153 27.1174C15.8435 26.8892 15.5007 26.5433 15.2715 26.7736L13.8347 28.2104C13.6075 28.4386 13.9483 28.7834 14.1775 28.5553ZM13.3252 27.629L14.762 26.1922C14.9902 25.964 14.6474 25.6181 14.4182 25.8483L12.9813 27.2851C12.7532 27.5123 13.0949 27.8582 13.3252 27.629Z" fill="#303030"/>
<g filter="url(#filter0_d_690_8834)">
<path fill-rule="evenodd" clip-rule="evenodd" d="M13.0961 5.00003H16.0771V9.59679L17.8816 7.99819L19.6861 9.59794V5H22.667C23.6101 5 24.3807 5.7717 24.3807 6.71476V16.2846C24.3807 17.2276 23.609 17.9993 22.667 17.9993H13.0961C12.153 17.9993 11.3813 17.2276 11.3813 16.2846L11.3825 6.71476C11.3825 5.7717 12.1542 5.00003 13.0961 5.00003ZM13.0987 16.0731H15.4943C15.7358 16.0731 15.9313 15.8776 15.9313 15.6361C15.9313 15.3945 15.7358 15.199 15.4943 15.199H13.0987C12.8572 15.199 12.6617 15.3945 12.6617 15.6361C12.6617 15.8776 12.8572 16.0731 13.0987 16.0731Z" fill="url(#paint0_linear_690_8834)"/>
</g>
<defs>
<filter id="filter0_d_690_8834" x="7.38132" y="5" width="20.9993" height="20.999" filterUnits="userSpaceOnUse" color-interpolation-filters="sRGB">
<feFlood flood-opacity="0" result="BackgroundImageFix"/>
<feColorMatrix in="SourceAlpha" type="matrix" values="0 0 0 0 0 0 0 0 0 0 0 0 0 0 0 0 0 0 127 0" result="hardAlpha"/>
<feOffset dy="4"/>
<feGaussianBlur stdDeviation="2"/>
<feComposite in2="hardAlpha" operator="out"/>
<feColorMatrix type="matrix" values="0 0 0 0 0 0 0 0 0 0 0 0 0 0 0 0 0 0 0.25 0"/>
<feBlend mode="normal" in2="BackgroundImageFix" result="effect1_dropShadow_690_8834"/>
<feBlend mode="normal" in="SourceGraphic" in2="effect1_dropShadow_690_8834" result="shape"/>
</filter>
<linearGradient id="paint0_linear_690_8834" x1="24.3807" y1="11.4997" x2="11.3813" y2="11.4997" gradientUnits="userSpaceOnUse">
<stop stop-color="#C20403"/>
<stop offset="1" stop-color="#EC6D2B"/>
</linearGradient>
</defs>
</svg>
