<svg width="36" height="36" viewBox="0 0 36 36" fill="none" xmlns="http://www.w3.org/2000/svg">
<path d="M28.5927 24.4011V23.7776C28.5927 22.4499 27.513 21.3702 26.1853 21.3702H18.963V20.3398C22.7569 19.8631 25.7037 16.6239 25.7037 12.7036C25.7037 8.45585 22.2478 5 18 5C13.7523 5 10.2964 8.45585 10.2964 12.7036C10.2964 16.6254 13.243 19.8643 17.0371 20.3398V21.3702H9.81477C8.4871 21.3702 7.40739 22.4499 7.40739 23.7776V24.4011C6.01713 24.8163 5 26.1055 5 27.6295C5 29.488 6.51182 31 8.3705 31C10.2292 31 11.741 29.4882 11.741 27.6295C11.741 26.1056 10.7239 24.8165 9.33361 24.4011V23.7776C9.33361 23.5127 9.55027 23.2961 9.81508 23.2961H17.0374V24.4011C15.6471 24.8163 14.63 26.1055 14.63 27.6295C14.63 29.488 16.1418 31 18.0005 31C19.8592 31 21.371 29.4882 21.371 27.6295C21.371 26.1056 20.3539 24.8165 18.9636 24.4011V23.2961H26.1859C26.4507 23.2961 26.6674 23.5127 26.6674 23.7776V24.4011C25.2771 24.8163 24.26 26.1055 24.26 27.6295C24.26 29.488 25.7718 31 27.6305 31C29.4892 31 31.001 29.4882 31.001 27.6295C31.001 26.1056 29.9839 24.8165 28.5936 24.4011H28.5927Z" fill="#303030"/>
<path fill-rule="evenodd" clip-rule="evenodd" d="M12.258 5.00004L20.1663 5H23.7437C24.8754 5 25.8001 5.92609 25.8001 7.05782V18.5422C25.8001 19.6739 24.874 20.6 23.7437 20.6H12.2579C11.1262 20.6 10.2001 19.6739 10.2001 18.5422L10.2015 7.05782C10.2015 5.92609 11.1276 5.00004 12.258 5.00004Z" fill="white"/>
<g filter="url(#filter0_d_690_8823)">
<path fill-rule="evenodd" clip-rule="evenodd" d="M12.258 5.00004H15.8354V10.5164L18.0008 8.59802L20.1663 10.5178V5H23.7437C24.8754 5 25.8001 5.92609 25.8001 7.05782V18.5422C25.8001 19.6739 24.874 20.6 23.7437 20.6H12.2579C11.1262 20.6 10.2001 19.6739 10.2001 18.5422L10.2015 7.05782C10.2015 5.92609 11.1276 5.00004 12.258 5.00004ZM12.2611 18.2884H15.136C15.4258 18.2884 15.6604 18.0538 15.6604 17.764C15.6604 17.4741 15.4258 17.2395 15.136 17.2395H12.2611C11.9713 17.2395 11.7366 17.4741 11.7366 17.764C11.7366 18.0538 11.9712 18.2884 12.2611 18.2884Z" fill="url(#paint0_linear_690_8823)"/>
</g>
<defs>
<filter id="filter0_d_690_8823" x="6.2001" y="5" width="23.6" height="23.5996" filterUnits="userSpaceOnUse" color-interpolation-filters="sRGB">
<feFlood flood-opacity="0" result="BackgroundImageFix"/>
<feColorMatrix in="SourceAlpha" type="matrix" values="0 0 0 0 0 0 0 0 0 0 0 0 0 0 0 0 0 0 127 0" result="hardAlpha"/>
<feOffset dy="4"/>
<feGaussianBlur stdDeviation="2"/>
<feComposite in2="hardAlpha" operator="out"/>
<feColorMatrix type="matrix" values="0 0 0 0 0 0 0 0 0 0 0 0 0 0 0 0 0 0 0.25 0"/>
<feBlend mode="normal" in2="BackgroundImageFix" result="effect1_dropShadow_690_8823"/>
<feBlend mode="normal" in="SourceGraphic" in2="effect1_dropShadow_690_8823" result="shape"/>
</filter>
<linearGradient id="paint0_linear_690_8823" x1="25.8001" y1="12.8" x2="10.2001" y2="12.8" gradientUnits="userSpaceOnUse">
<stop stop-color="#C20403"/>
<stop offset="1" stop-color="#EC6D2B"/>
</linearGradient>
</defs>
</svg>
