<svg width="36" height="36" viewBox="0 0 36 36" fill="none" xmlns="http://www.w3.org/2000/svg">
<path d="M4.95174 6.00054C3.82169 5.96611 3.6322 7.60327 4.74022 7.82801L6.78155 8.27514C7.86136 13.4407 9.03842 18.5852 10.1798 23.7379C10.2737 24.1604 10.6484 24.461 11.0812 24.4608H27.2911C28.54 24.4793 28.54 22.5964 27.2911 22.6147H11.8221L11.4135 20.7691H28.1089C28.5417 20.7692 28.9165 20.4687 29.0103 20.0462L31.0547 10.8166C31.1821 10.2405 30.7439 9.69433 30.1539 9.69399C23.0914 9.69415 16.0289 9.69385 8.96656 9.69051L8.46479 7.30989C8.39002 6.9546 8.11392 6.67617 7.75932 6.59836L5.13448 6.02382C5.07448 6.00998 5.01327 6.00205 4.95174 6.00054ZM14.9234 25.0769C13.575 25.0769 12.4621 26.1899 12.4621 27.5385C12.4621 28.887 13.575 30 14.9234 30C16.2719 30 17.3848 28.887 17.3848 27.5385C17.3848 26.1899 16.2719 25.0769 14.9234 25.0769ZM23.5383 25.0769C22.1898 25.0769 21.0769 26.1899 21.0769 27.5385C21.0769 28.887 22.1898 30 23.5383 30C24.8867 30 25.9996 28.887 25.9996 27.5385C25.9996 26.1899 24.8867 25.0769 23.5383 25.0769Z" fill="#303030"/>
<g filter="url(#filter0_d_690_8796)">
<path d="M9.3189 11.5026C9.2842 11.3754 9.37998 11.25 9.51185 11.25H29.2381C29.37 11.25 29.4658 11.3754 29.4311 11.5026L27.2902 19.3526C27.2665 19.4396 27.1874 19.5 27.0972 19.5H11.6528C11.5626 19.5 11.4835 19.4396 11.4598 19.3526L9.3189 11.5026Z" fill="url(#paint0_linear_690_8796)"/>
</g>
<defs>
<filter id="filter0_d_690_8796" x="5.31174" y="11.25" width="28.1266" height="16.25" filterUnits="userSpaceOnUse" color-interpolation-filters="sRGB">
<feFlood flood-opacity="0" result="BackgroundImageFix"/>
<feColorMatrix in="SourceAlpha" type="matrix" values="0 0 0 0 0 0 0 0 0 0 0 0 0 0 0 0 0 0 127 0" result="hardAlpha"/>
<feOffset dy="4"/>
<feGaussianBlur stdDeviation="2"/>
<feComposite in2="hardAlpha" operator="out"/>
<feColorMatrix type="matrix" values="0 0 0 0 0 0 0 0 0 0 0 0 0 0 0 0 0 0 0.25 0"/>
<feBlend mode="normal" in2="BackgroundImageFix" result="effect1_dropShadow_690_8796"/>
<feBlend mode="normal" in="SourceGraphic" in2="effect1_dropShadow_690_8796" result="shape"/>
</filter>
<linearGradient id="paint0_linear_690_8796" x1="29.5" y1="15.375" x2="9.25" y2="15.375" gradientUnits="userSpaceOnUse">
<stop stop-color="#C20403"/>
<stop offset="1" stop-color="#EC6D2B"/>
</linearGradient>
</defs>
</svg>
